<svg width="20" height="17" viewBox="0 0 20 17" fill="none" xmlns="http://www.w3.org/2000/svg">
<path fill-rule="evenodd" clip-rule="evenodd" d="M10.1583 2.56414C6.1183 2.56414 2.63634 4.94571 1.03684 8.38247C0.987719 8.48662 0.987719 8.60845 1.03684 8.71456C2.63634 12.1513 6.11832 14.5329 10.1583 14.5329C14.1983 14.5329 17.6803 12.1513 19.2798 8.71456C19.3289 8.61041 19.3289 8.48858 19.2798 8.38247C17.6803 4.94571 14.1983 2.56414 10.1583 2.56414ZM10.1583 12.678C7.87696 12.678 6.02988 10.8289 6.02988 8.5495C6.02988 6.26815 7.87893 4.42106 10.1583 4.42106C12.4397 4.42106 14.2868 6.27011 14.2868 8.5495C14.2868 10.8289 12.4377 12.678 10.1583 12.678ZM12.8012 8.54753C12.8012 10.0072 11.618 11.1904 10.1583 11.1904C8.69868 11.1904 7.51541 10.0072 7.51541 8.54753C7.51541 7.08789 8.69868 5.90462 10.1583 5.90462C11.618 5.90462 12.8012 7.08789 12.8012 8.54753Z" fill="#000"/>
<path d="M1.03684 8.38247L1.48907 8.59578L1.49015 8.59345L1.03684 8.38247ZM1.03684 8.71456L0.583109 8.92462L0.583534 8.92553L1.03684 8.71456ZM19.2798 8.71456L18.8276 8.50124L18.8265 8.50358L19.2798 8.71456ZM19.2798 8.38247L19.7335 8.17241L19.7331 8.1715L19.2798 8.38247ZM18.4245 1.36553C18.6264 1.17712 18.6373 0.860725 18.4489 0.658847C18.2605 0.456968 17.9441 0.446053 17.7422 0.634467L18.4245 1.36553ZM1.90885 15.4118C1.70697 15.6002 1.69605 15.9166 1.88447 16.1184C2.07288 16.3203 2.38927 16.3312 2.59115 16.1428L1.90885 15.4118ZM10.1583 2.06414C5.91663 2.06414 2.26199 4.56509 0.583534 8.1715L1.49015 8.59345C3.0107 5.32633 6.31997 3.06414 10.1583 3.06414V2.06414ZM0.584628 8.16916C0.471205 8.40962 0.472883 8.68653 0.58311 8.92462L1.49058 8.50449C1.50256 8.53037 1.50423 8.56361 1.48906 8.59578L0.584628 8.16916ZM0.583534 8.92553C2.26199 12.5319 5.91665 15.0329 10.1583 15.0329V14.0329C6.31999 14.0329 3.0107 11.7707 1.49015 8.50358L0.583534 8.92553ZM10.1583 15.0329C14.4 15.0329 18.0546 12.5319 19.7331 8.92553L18.8265 8.50358C17.3059 11.7707 13.9966 14.0329 10.1583 14.0329V15.0329ZM19.732 8.92787C19.8454 8.68741 19.8438 8.4105 19.7335 8.17241L18.8261 8.59254C18.8141 8.56666 18.8124 8.53341 18.8276 8.50124L19.732 8.92787ZM19.7331 8.1715C18.0546 4.56509 14.4 2.06414 10.1583 2.06414V3.06414C13.9967 3.06414 17.3059 5.32633 18.8265 8.59345L19.7331 8.1715ZM10.1583 12.178C8.15326 12.178 6.52988 10.5529 6.52988 8.5495H5.52988C5.52988 11.1049 7.60066 13.178 10.1583 13.178V12.178ZM6.52988 8.5495C6.52988 6.54444 8.15492 4.92106 10.1583 4.92106V3.92106C7.60294 3.92106 5.52988 5.99185 5.52988 8.5495H6.52988ZM10.1583 4.92106C12.1634 4.92106 13.7868 6.5461 13.7868 8.5495H14.7868C14.7868 5.99412 12.716 3.92106 10.1583 3.92106V4.92106ZM13.7868 8.5495C13.7868 10.5527 12.1616 12.178 10.1583 12.178V13.178C12.7138 13.178 14.7868 11.105 14.7868 8.5495H13.7868ZM12.3012 8.54753C12.3012 9.73103 11.3418 10.6904 10.1583 10.6904V11.6904C11.8941 11.6904 13.3012 10.2833 13.3012 8.54753H12.3012ZM10.1583 10.6904C8.97482 10.6904 8.01541 9.73103 8.01541 8.54753H7.01541C7.01541 10.2833 8.42253 11.6904 10.1583 11.6904V10.6904ZM8.01541 8.54753C8.01541 7.36404 8.97482 6.40462 10.1583 6.40462V5.40462C8.42253 5.40462 7.01541 6.81175 7.01541 8.54753H8.01541ZM10.1583 6.40462C11.3418 6.40462 12.3012 7.36404 12.3012 8.54753H13.3012C13.3012 6.81175 11.8941 5.40462 10.1583 5.40462V6.40462ZM17.7422 0.634467L1.90885 15.4118L2.59115 16.1428L18.4245 1.36553L17.7422 0.634467Z" fill="#000"/>
</svg>
