<svg width="20" height="13" viewBox="0 0 20 13" fill="none" xmlns="http://www.w3.org/2000/svg">
<path fill-rule="evenodd" clip-rule="evenodd" d="M10 1C6.02982 1 2.60806 3.27925 1.03621 6.56836C0.987931 6.66803 0.987931 6.78463 1.03621 6.88618C2.60806 10.1753 6.02984 12.4545 10 12.4545C13.9702 12.4545 17.3919 10.1753 18.9638 6.88618C19.0121 6.78651 19.0121 6.66991 18.9638 6.56836C17.3919 3.27925 13.9702 1 10 1ZM10 10.6793C7.75809 10.6793 5.94293 8.90967 5.94293 6.72821C5.94293 4.54487 7.76002 2.77714 10 2.77714C12.2419 2.77714 14.0571 4.54675 14.0571 6.72821C14.0571 8.90967 12.24 10.6793 10 10.6793ZM12.5972 6.72633C12.5972 8.12326 11.4344 9.2557 10 9.2557C8.56559 9.2557 7.40278 8.12326 7.40278 6.72633C7.40278 5.3294 8.56559 4.19697 10 4.19697C11.4344 4.19697 12.5972 5.3294 12.5972 6.72633Z" fill="#000" stroke="#000" stroke-linecap="round"/>
</svg>
